# xmcd
#
# Track frame offsets:
#	150
#	21847
#	40700
#	57380
#	71315
#	90085
#	103970
#	119242
#	134960
#	147797
#	164920
#	180912
#	195490
#	213022
#	228310
#	243972
#
# Disc length: 3475 seconds
#
# Revision: 0
# Processed by: cddbd v1.5.1PL0 Copyright (c) Steve Scherf et al.
# Submitted via: audiograbber 1.83.01
#
DISCID=e10d9110
DTITLE=Os Serranos - Os 16 Grandes Sucessos
DYEAR=2002
DGENRE=Gaúcho
TTITLE0=Criado em galpão
TTITLE1=Ginete de fronteira
TTITLE2=Gineteando um chamamé
TTITLE3=Tropeiro de rimas
TTITLE4=De chão batido
TTITLE5=O Cancioneiro das cochilhas
TTITLE6=Lembranças
TTITLE7=Produtor rural
TTITLE8=Marcas do tempo
TTITLE9=De bem com a vida
TTITLE10=Metendo os ferro
TTITLE11=Jeito de galpão
TTITLE12=Casamento de sitio
TTITLE13=Cor das auroras
TTITLE14=Moda de arrepiar
TTITLE15=Brasão de sangue
EXTD=
EXTT0=
EXTT1=
EXTT2=
EXTT3=
EXTT4=
EXTT5=
EXTT6=
EXTT7=
EXTT8=
EXTT9=
EXTT10=
EXTT11=
EXTT12=
EXTT13=
EXTT14=
EXTT15=
PLAYORDER=
